<mxfile host="app.diagrams.net" agent="Mozilla/5.0 (Macintosh; Intel Mac OS X 10_15_7) AppleWebKit/537.36 (KHTML, like Gecko) Chrome/131.0.0.0 Safari/537.36" version="26.1.1">
  <diagram name="第 1 页" id="Mwxz7kaE5-mWuapdTI5x">
    <mxGraphModel dx="1242" dy="741" grid="0" gridSize="10" guides="1" tooltips="1" connect="1" arrows="1" fold="1" page="0" pageScale="1" pageWidth="827" pageHeight="1169" background="#ffffff" math="0" shadow="0">
      <root>
        <mxCell id="0" />
        <mxCell id="1" parent="0" />
        <mxCell id="P5PfYAAZ36n7NTvtuzEC-12" value="" style="edgeStyle=orthogonalEdgeStyle;rounded=0;orthogonalLoop=1;jettySize=auto;html=1;" edge="1" parent="1" source="P5PfYAAZ36n7NTvtuzEC-2" target="P5PfYAAZ36n7NTvtuzEC-3">
          <mxGeometry relative="1" as="geometry" />
        </mxCell>
        <mxCell id="P5PfYAAZ36n7NTvtuzEC-2" value="prepare RK API for&amp;nbsp;&lt;div&gt;original RKE cluster&lt;/div&gt;" style="rounded=1;whiteSpace=wrap;html=1;absoluteArcSize=1;arcSize=14;strokeWidth=2;" vertex="1" parent="1">
          <mxGeometry x="110" y="180" width="160" height="60" as="geometry" />
        </mxCell>
        <mxCell id="P5PfYAAZ36n7NTvtuzEC-13" value="" style="edgeStyle=orthogonalEdgeStyle;rounded=0;orthogonalLoop=1;jettySize=auto;html=1;" edge="1" parent="1" source="P5PfYAAZ36n7NTvtuzEC-3" target="P5PfYAAZ36n7NTvtuzEC-4">
          <mxGeometry relative="1" as="geometry" />
        </mxCell>
        <mxCell id="P5PfYAAZ36n7NTvtuzEC-3" value="prepare RK API for&amp;nbsp;&lt;div&gt;destination RKE2 cluster&lt;/div&gt;" style="rounded=1;whiteSpace=wrap;html=1;absoluteArcSize=1;arcSize=14;strokeWidth=2;" vertex="1" parent="1">
          <mxGeometry x="105" y="280" width="170" height="50" as="geometry" />
        </mxCell>
        <mxCell id="P5PfYAAZ36n7NTvtuzEC-14" value="" style="edgeStyle=orthogonalEdgeStyle;rounded=0;orthogonalLoop=1;jettySize=auto;html=1;" edge="1" parent="1" source="P5PfYAAZ36n7NTvtuzEC-4" target="P5PfYAAZ36n7NTvtuzEC-5">
          <mxGeometry relative="1" as="geometry" />
        </mxCell>
        <mxCell id="P5PfYAAZ36n7NTvtuzEC-4" value="check system resource status between RKE and RKE2 cluster" style="rounded=1;whiteSpace=wrap;html=1;absoluteArcSize=1;arcSize=14;strokeWidth=2;" vertex="1" parent="1">
          <mxGeometry x="90" y="390" width="200" height="70" as="geometry" />
        </mxCell>
        <mxCell id="P5PfYAAZ36n7NTvtuzEC-15" value="" style="edgeStyle=orthogonalEdgeStyle;rounded=0;orthogonalLoop=1;jettySize=auto;html=1;" edge="1" parent="1" source="P5PfYAAZ36n7NTvtuzEC-5" target="P5PfYAAZ36n7NTvtuzEC-6">
          <mxGeometry relative="1" as="geometry" />
        </mxCell>
        <mxCell id="P5PfYAAZ36n7NTvtuzEC-5" value="Migrate system resources to RKE2 cluster" style="rounded=1;whiteSpace=wrap;html=1;absoluteArcSize=1;arcSize=14;strokeWidth=2;" vertex="1" parent="1">
          <mxGeometry x="90" y="515" width="200" height="70" as="geometry" />
        </mxCell>
        <mxCell id="P5PfYAAZ36n7NTvtuzEC-16" value="" style="edgeStyle=orthogonalEdgeStyle;rounded=0;orthogonalLoop=1;jettySize=auto;html=1;" edge="1" parent="1" source="P5PfYAAZ36n7NTvtuzEC-6" target="P5PfYAAZ36n7NTvtuzEC-7">
          <mxGeometry relative="1" as="geometry" />
        </mxCell>
        <mxCell id="P5PfYAAZ36n7NTvtuzEC-17" value="YES" style="edgeLabel;html=1;align=center;verticalAlign=middle;resizable=0;points=[];" vertex="1" connectable="0" parent="P5PfYAAZ36n7NTvtuzEC-16">
          <mxGeometry x="-0.0286" relative="1" as="geometry">
            <mxPoint as="offset" />
          </mxGeometry>
        </mxCell>
        <mxCell id="P5PfYAAZ36n7NTvtuzEC-6" value="Success" style="strokeWidth=2;html=1;shape=mxgraph.flowchart.decision;whiteSpace=wrap;" vertex="1" parent="1">
          <mxGeometry x="125" y="630" width="130" height="80" as="geometry" />
        </mxCell>
        <mxCell id="P5PfYAAZ36n7NTvtuzEC-18" value="" style="edgeStyle=orthogonalEdgeStyle;rounded=0;orthogonalLoop=1;jettySize=auto;html=1;" edge="1" parent="1" source="P5PfYAAZ36n7NTvtuzEC-7" target="P5PfYAAZ36n7NTvtuzEC-9">
          <mxGeometry relative="1" as="geometry" />
        </mxCell>
        <mxCell id="P5PfYAAZ36n7NTvtuzEC-7" value="Check the RKE2 cluster has the same resources and user permissions as RKE cluster" style="rounded=1;whiteSpace=wrap;html=1;absoluteArcSize=1;arcSize=14;strokeWidth=2;" vertex="1" parent="1">
          <mxGeometry x="90" y="780" width="200" height="70" as="geometry" />
        </mxCell>
        <mxCell id="P5PfYAAZ36n7NTvtuzEC-9" value="system resources migration Complete" style="strokeWidth=2;html=1;shape=mxgraph.flowchart.terminator;whiteSpace=wrap;" vertex="1" parent="1">
          <mxGeometry x="130" y="910" width="120" height="60" as="geometry" />
        </mxCell>
        <mxCell id="P5PfYAAZ36n7NTvtuzEC-11" value="" style="edgeStyle=orthogonalEdgeStyle;rounded=0;orthogonalLoop=1;jettySize=auto;html=1;" edge="1" parent="1" source="P5PfYAAZ36n7NTvtuzEC-10" target="P5PfYAAZ36n7NTvtuzEC-2">
          <mxGeometry relative="1" as="geometry" />
        </mxCell>
        <mxCell id="P5PfYAAZ36n7NTvtuzEC-10" value="system resources migration Start" style="strokeWidth=2;html=1;shape=mxgraph.flowchart.start_1;whiteSpace=wrap;" vertex="1" parent="1">
          <mxGeometry x="130" y="70" width="120" height="60" as="geometry" />
        </mxCell>
        <mxCell id="P5PfYAAZ36n7NTvtuzEC-19" value="" style="endArrow=classic;html=1;rounded=0;exitX=1;exitY=0.5;exitDx=0;exitDy=0;exitPerimeter=0;entryX=1;entryY=0.5;entryDx=0;entryDy=0;" edge="1" parent="1" source="P5PfYAAZ36n7NTvtuzEC-6" target="P5PfYAAZ36n7NTvtuzEC-4">
          <mxGeometry width="50" height="50" relative="1" as="geometry">
            <mxPoint x="380" y="660" as="sourcePoint" />
            <mxPoint x="430" y="610" as="targetPoint" />
            <Array as="points">
              <mxPoint x="370" y="670" />
              <mxPoint x="370" y="425" />
            </Array>
          </mxGeometry>
        </mxCell>
        <mxCell id="P5PfYAAZ36n7NTvtuzEC-20" value="NO" style="edgeLabel;html=1;align=center;verticalAlign=middle;resizable=0;points=[];" vertex="1" connectable="0" parent="P5PfYAAZ36n7NTvtuzEC-19">
          <mxGeometry x="0.0182" relative="1" as="geometry">
            <mxPoint as="offset" />
          </mxGeometry>
        </mxCell>
      </root>
    </mxGraphModel>
  </diagram>
</mxfile>
